<svg id="SvgjsSvg1013" width="288" height="288" xmlns="http://www.w3.org/2000/svg" version="1.1" xmlns:xlink="http://www.w3.org/1999/xlink" xmlns:svgjs="http://svgjs.com/svgjs"><circle id="SvgjsCircle1019" r="144" cx="144" cy="144" fill="#34b2c5" transform="matrix(0.87,0,0,0.87,18.72,18.72)"></circle><defs id="SvgjsDefs1014"></defs><g id="SvgjsG1015" transform="matrix(0.59,0,0,0.59,59.040000000000006,59.040000000000006)"><svg xmlns="http://www.w3.org/2000/svg" width="288" height="288" viewBox="0 0 24 24"><path fill="none" d="M0 0h24v24H0V0z"></path><path d="M7 11h2v2H7v-2zm14-5v14c0 1.1-.9 2-2 2H5c-1.11 0-2-.9-2-2l.01-14c0-1.1.88-2 1.99-2h1V2h2v2h8V2h2v2h1c1.1 0 2 .9 2 2zM5 8h14V6H5v2zm14 12V10H5v10h14zm-4-7h2v-2h-2v2zm-4 0h2v-2h-2v2z" fill="#ffffff" class="color000 svgShape"></path></svg></g></svg>